<?xml version="1.0" encoding="UTF-8"?>
<svg width="390" height="844" viewBox="0 0 390 844"
     xmlns="http://www.w3.org/2000/svg" role="img">
  <title>Boxing Fitness — Fat Burning Mode UI (390×844 iPhone)</title>
  <desc>燃脂模式界面 橙红活力色调。深焦糖背景，橙红拳套，心率区间，实时卡路里燃脂量，HIIT倒计时，高频ECG波形。</desc>

  <defs>
    <linearGradient id="fb_bg" x1="0" y1="0" x2="0" y2="1">
      <stop offset="0%"   stop-color="#120400"/>
      <stop offset="100%" stop-color="#1E0800"/>
    </linearGradient>
    <linearGradient id="fb_glove_L" x1="0" y1="0" x2="1" y2="1">
      <stop offset="0%"   stop-color="#FF6622"/>
      <stop offset="100%" stop-color="#AA2200"/>
    </linearGradient>
    <linearGradient id="fb_glove_R" x1="1" y1="0" x2="0" y2="1">
      <stop offset="0%"   stop-color="#FF6622"/>
      <stop offset="100%" stop-color="#AA2200"/>
    </linearGradient>
    <linearGradient id="fb_glove_hi" x1="0" y1="0" x2="0" y2="1">
      <stop offset="0%"   stop-color="#FF8844"/>
      <stop offset="100%" stop-color="#EE4400"/>
    </linearGradient>
    <linearGradient id="fb_cuff" x1="0" y1="0" x2="0" y2="1">
      <stop offset="0%"   stop-color="#440E00"/>
      <stop offset="100%" stop-color="#220600"/>
    </linearGradient>
    <linearGradient id="fb_hr_bar" x1="0" y1="0" x2="1" y2="0">
      <stop offset="0%"   stop-color="#CC2200"/>
      <stop offset="60%"  stop-color="#FF6600"/>
      <stop offset="100%" stop-color="#FFAA00"/>
    </linearGradient>
    <linearGradient id="fb_cal_bar" x1="0" y1="0" x2="1" y2="0">
      <stop offset="0%"   stop-color="#FF4400"/>
      <stop offset="100%" stop-color="#FFCC00"/>
    </linearGradient>
    <linearGradient id="fb_btn" x1="0" y1="0" x2="1" y2="0">
      <stop offset="0%"   stop-color="#CC2200"/>
      <stop offset="100%" stop-color="#FF5500"/>
    </linearGradient>
    <linearGradient id="fb_ecg" x1="0" y1="0" x2="1" y2="0">
      <stop offset="0%"   stop-color="#FF3300"/>
      <stop offset="40%"  stop-color="#FF8800"/>
      <stop offset="80%"  stop-color="#FFCC00"/>
      <stop offset="100%" stop-color="#FF6600"/>
    </linearGradient>
    <linearGradient id="fb_led" x1="0" y1="0" x2="1" y2="0">
      <stop offset="0%"   stop-color="#FF4400"/>
      <stop offset="50%"  stop-color="#FFDD00"/>
      <stop offset="100%" stop-color="#FF4400"/>
    </linearGradient>
    <radialGradient id="fb_ring_outer" cx="50%" cy="50%" r="50%">
      <stop offset="0%"   stop-color="#FF4400" stop-opacity="0"/>
      <stop offset="65%"  stop-color="#FF4400" stop-opacity="0.12"/>
      <stop offset="100%" stop-color="#FF4400" stop-opacity="0.30"/>
    </radialGradient>
    <radialGradient id="fb_ring_inner" cx="50%" cy="50%" r="50%">
      <stop offset="0%"   stop-color="#FF6600" stop-opacity="0.10"/>
      <stop offset="100%" stop-color="#FF6600" stop-opacity="0"/>
    </radialGradient>
    <radialGradient id="fb_press" cx="50%" cy="50%" r="50%">
      <stop offset="0%"   stop-color="#FFAA00" stop-opacity="0.90"/>
      <stop offset="100%" stop-color="#FF4400" stop-opacity="0"/>
    </radialGradient>
    <radialGradient id="fb_center_glow" cx="50%" cy="50%" r="50%">
      <stop offset="0%"   stop-color="#FF4400" stop-opacity="0.30"/>
      <stop offset="100%" stop-color="#FF4400" stop-opacity="0"/>
    </radialGradient>
  </defs>

  <!-- ── 背景 ── -->
  <rect width="390" height="844" fill="url(#fb_bg)"/>

  <!-- ── 状态栏 ── -->
  <rect x="0" y="0" width="390" height="54" fill="#0A0200" opacity="0.85"/>
  <text x="30"  y="36" font-family="'SF Pro Display','Helvetica Neue',Helvetica,Arial,sans-serif"
        font-size="15" font-weight="600" fill="#AA5522" opacity="0.8">9:41</text>
  <text x="360" y="36" text-anchor="end"
        font-family="'SF Pro Display','Helvetica Neue',Helvetica,Arial,sans-serif"
        font-size="13" fill="#AA5522" opacity="0.8">WiFi  🔋</text>

  <!-- ── 顶部导航 ── -->
  <text x="30"  y="96" font-family="'SF Pro Display','Helvetica Neue',Helvetica,Arial,sans-serif"
        font-size="16" fill="#883300" opacity="0.8">← 返回</text>
  <text x="195" y="96" text-anchor="middle"
        font-family="'SF Pro Display','Helvetica Neue',Helvetica,Arial,sans-serif"
        font-size="17" font-weight="700" fill="#FF8844">Fat Burning</text>
  <text x="360" y="96" text-anchor="end"
        font-family="'SF Pro Display','Helvetica Neue',Helvetica,Arial,sans-serif"
        font-size="14" fill="#883300" opacity="0.8">记录</text>

  <!-- ── 模式副标题 ── -->
  <text x="195" y="126" text-anchor="middle"
        font-family="'SF Pro Display','Helvetica Neue',Helvetica,Arial,sans-serif"
        font-size="13" fill="#AA4422">HIIT 极速闪电战 · 无氧燃脂区间</text>

  <!-- ── 心率区间进度条 ── -->
  <rect x="30" y="148" width="330" height="44" rx="22" fill="#1A0800"/>
  <rect x="30" y="148" width="277" height="44" rx="22" fill="url(#fb_hr_bar)" opacity="0.90"/>
  <text x="50"  y="176" font-family="'SF Pro Display','Helvetica Neue',Helvetica,Arial,sans-serif"
        font-size="13" fill="#FFCCAA">心率区间</text>
  <text x="350" y="176" text-anchor="end"
        font-family="'SF Pro Display','Helvetica Neue',Helvetica,Arial,sans-serif"
        font-size="14" font-weight="700" fill="#FFCC44">83%</text>

  <!-- ── 心率区间标签 ── -->
  <rect x="30"  y="206" width="70"  height="28" rx="14" fill="#1A0800" stroke="#441A00" stroke-width="0.8"/>
  <text x="65"  y="225" text-anchor="middle"
        font-family="'SF Pro Display','Helvetica Neue',Helvetica,Arial,sans-serif"
        font-size="11" fill="#883300">热身</text>
  <rect x="110" y="206" width="70"  height="28" rx="14" fill="#1A0800" stroke="#441A00" stroke-width="0.8"/>
  <text x="145" y="225" text-anchor="middle"
        font-family="'SF Pro Display','Helvetica Neue',Helvetica,Arial,sans-serif"
        font-size="11" fill="#883300">有氧</text>
  <rect x="190" y="206" width="70"  height="28" rx="14" fill="#1A0800" stroke="#441A00" stroke-width="0.8"/>
  <text x="225" y="225" text-anchor="middle"
        font-family="'SF Pro Display','Helvetica Neue',Helvetica,Arial,sans-serif"
        font-size="11" fill="#883300">燃脂</text>
  <rect x="270" y="206" width="70"  height="28" rx="14" fill="#CC2200" stroke="#FF4400" stroke-width="1.2"/>
  <text x="305" y="225" text-anchor="middle"
        font-family="'SF Pro Display','Helvetica Neue',Helvetica,Arial,sans-serif"
        font-size="11" font-weight="700" fill="#FFDDAA">无氧 ✓</text>

  <!-- ── 主视觉区：能量圆环 ── -->
  <circle cx="195" cy="450" r="155" fill="url(#fb_ring_outer)"/>
  <circle cx="195" cy="450" r="155" fill="none" stroke="#882200"
          stroke-width="1.4" stroke-dasharray="12.8,19.2" opacity="0.45"/>
  <circle cx="195" cy="450" r="112" fill="url(#fb_ring_inner)"/>
  <circle cx="195" cy="450" r="112" fill="none" stroke="#FF4400" stroke-width="2.6" opacity="0.20"/>
  <circle cx="195" cy="450" r="78"  fill="url(#fb_center_glow)"/>

  <!-- ── LEFT GLOVE（橙红）── -->
  <g transform="translate(195,450) rotate(-22) translate(-85,-112)">
    <rect x="0"   y="51"  width="85"  height="119" rx="24" fill="url(#fb_glove_L)" opacity="0.92"/>
    <rect x="6.1" y="4.3" width="72.3" height="59.8" rx="22" fill="url(#fb_glove_hi)" opacity="0.88"/>
    <rect x="0"   y="136" width="85"  height="34"  rx="17" fill="url(#fb_cuff)" opacity="0.88"/>
    <rect x="12.2" y="12.8" width="36.5" height="9.4" rx="4.7" fill="white" opacity="0.28"/>
    <rect x="12.2" y="68"  width="61"  height="4.3" rx="2.1" fill="white" opacity="0.14"/>
    <rect x="12.2" y="80"  width="61"  height="4.3" rx="2.1" fill="white" opacity="0.14"/>
    <!-- IMU芯片 -->
    <rect x="57.5" y="9.4" width="24.4" height="24.4" rx="5.1"
          fill="#0A0200" stroke="#FFDD00" stroke-width="2.6" opacity="0.92"/>
    <circle cx="69.7" cy="21.5" r="4.5" fill="#FFDD00" opacity="0.95"/>
    <line x1="57.5" y1="21.5" x2="50"   y2="21.5" stroke="#FFDD00" stroke-width="1.8" opacity="0.70"/>
    <line x1="81.9" y1="21.5" x2="85"   y2="21.5" stroke="#FFDD00" stroke-width="1.8" opacity="0.70"/>
    <line x1="69.7" y1="9.4"  x2="69.7" y2="4.3"  stroke="#FFDD00" stroke-width="1.8" opacity="0.70"/>
    <line x1="69.7" y1="33.8" x2="69.7" y2="38.9" stroke="#FFDD00" stroke-width="1.8" opacity="0.70"/>
    <!-- 压力传感器 -->
    <ellipse cx="42.5" cy="95.2" rx="22.4" ry="18.1" fill="url(#fb_press)" opacity="0.40"/>
    <circle cx="30.5" cy="85.8" r="3.0" fill="#FFAA44" opacity="0.70"/>
    <circle cx="42.5" cy="85.8" r="3.0" fill="#FFAA44" opacity="0.70"/>
    <circle cx="54.5" cy="85.8" r="3.0" fill="#FFAA44" opacity="0.70"/>
    <circle cx="30.5" cy="95.2" r="3.0" fill="#FFCC66" opacity="0.80"/>
    <circle cx="42.5" cy="95.2" r="4.3"  fill="#FFFFFF"  opacity="0.88"/>
    <circle cx="54.5" cy="95.2" r="3.0" fill="#FFCC66" opacity="0.80"/>
    <circle cx="30.5" cy="104.7" r="3.0" fill="#FFAA44" opacity="0.70"/>
    <circle cx="42.5" cy="104.7" r="3.0" fill="#FFAA44" opacity="0.70"/>
    <circle cx="54.5" cy="104.7" r="3.0" fill="#FFAA44" opacity="0.70"/>
    <!-- 护腕LED -->
    <rect x="10.2" y="140" width="65.1" height="9.4" rx="4.7" fill="url(#fb_led)" opacity="0.72"/>
    <!-- 护腕状态灯 -->
    <circle cx="20"  cy="158" r="3.4" fill="#FFDD00" opacity="0.80"/>
    <circle cx="33"  cy="158" r="3.4" fill="#FF8800" opacity="0.70"/>
    <circle cx="46"  cy="158" r="3.4" fill="#FF4400" opacity="0.70"/>
  </g>

  <!-- ── RIGHT GLOVE ── -->
  <g transform="translate(195,450) rotate(22) translate(0,-112)">
    <rect x="0"   y="51"  width="85"  height="119" rx="24" fill="url(#fb_glove_R)" opacity="0.92"/>
    <rect x="6.1" y="4.3" width="72.3" height="59.8" rx="22" fill="url(#fb_glove_hi)" opacity="0.88"/>
    <rect x="0"   y="136" width="85"  height="34"  rx="17" fill="url(#fb_cuff)" opacity="0.88"/>
    <rect x="12.2" y="12.8" width="36.5" height="9.4" rx="4.7" fill="white" opacity="0.28"/>
    <rect x="12.2" y="68"  width="61"  height="4.3" rx="2.1" fill="white" opacity="0.14"/>
    <rect x="12.2" y="80"  width="61"  height="4.3" rx="2.1" fill="white" opacity="0.14"/>
    <!-- IMU芯片 -->
    <rect x="3.1"  y="9.4" width="24.4" height="24.4" rx="5.1"
          fill="#0A0200" stroke="#FFDD00" stroke-width="2.6" opacity="0.92"/>
    <circle cx="15.3" cy="21.5" r="4.5" fill="#FFDD00" opacity="0.95"/>
    <line x1="27.5" y1="21.5" x2="35"   y2="21.5" stroke="#FFDD00" stroke-width="1.8" opacity="0.70"/>
    <line x1="3.1"  y1="21.5" x2="0"    y2="21.5" stroke="#FFDD00" stroke-width="1.8" opacity="0.70"/>
    <line x1="15.3" y1="9.4"  x2="15.3" y2="4.3"  stroke="#FFDD00" stroke-width="1.8" opacity="0.70"/>
    <line x1="15.3" y1="33.8" x2="15.3" y2="38.9" stroke="#FFDD00" stroke-width="1.8" opacity="0.70"/>
    <!-- 压力传感器 -->
    <ellipse cx="42.5" cy="95.2" rx="22.4" ry="18.1" fill="url(#fb_press)" opacity="0.40"/>
    <circle cx="30.5" cy="85.8" r="3.0" fill="#FFAA44" opacity="0.70"/>
    <circle cx="42.5" cy="85.8" r="3.0" fill="#FFAA44" opacity="0.70"/>
    <circle cx="54.5" cy="85.8" r="3.0" fill="#FFAA44" opacity="0.70"/>
    <circle cx="30.5" cy="95.2" r="3.0" fill="#FFCC66" opacity="0.80"/>
    <circle cx="42.5" cy="95.2" r="4.3"  fill="#FFFFFF"  opacity="0.88"/>
    <circle cx="54.5" cy="95.2" r="3.0" fill="#FFCC66" opacity="0.80"/>
    <circle cx="30.5" cy="104.7" r="3.0" fill="#FFAA44" opacity="0.70"/>
    <circle cx="42.5" cy="104.7" r="3.0" fill="#FFAA44" opacity="0.70"/>
    <circle cx="54.5" cy="104.7" r="3.0" fill="#FFAA44" opacity="0.70"/>
    <rect x="10.2" y="140" width="65.1" height="9.4" rx="4.7" fill="url(#fb_led)" opacity="0.72"/>
    <circle cx="20"  cy="158" r="3.4" fill="#FFDD00" opacity="0.80"/>
    <circle cx="33"  cy="158" r="3.4" fill="#FF8800" opacity="0.70"/>
    <circle cx="46"  cy="158" r="3.4" fill="#FF4400" opacity="0.70"/>
  </g>

  <!-- ── 中央数据显示 ── -->
  <text x="195" y="408" text-anchor="middle"
        font-family="'SF Pro Display','Helvetica Neue',Helvetica,Arial,sans-serif"
        font-size="13" fill="#884422">击打数</text>
  <text x="195" y="454" text-anchor="middle"
        font-family="'SF Pro Display','Helvetica Neue',Helvetica,Arial,sans-serif"
        font-size="62" font-weight="700" fill="#FFFFFF" opacity="0.96">386</text>
  <!-- 卡路里+燃脂 -->
  <text x="195" y="480" text-anchor="middle"
        font-family="'SF Pro Display','Helvetica Neue',Helvetica,Arial,sans-serif"
        font-size="14" font-weight="600" fill="#FF9944">257 kcal  ·  20.1g 脂肪</text>
  <!-- HIIT倒计时 -->
  <text x="195" y="514" text-anchor="middle"
        font-family="'SF Pro Display','Helvetica Neue',Helvetica,Arial,sans-serif"
        font-size="38" font-weight="700" fill="#FF6600">00:42</text>

  <!-- ── 高频紧张 ECG 波形 ── -->
  <rect x="0" y="578" width="390" height="90" fill="#0A0200" opacity="0.60"/>
  <text x="30" y="600" font-family="'SF Pro Display','Helvetica Neue',Helvetica,Arial,sans-serif"
        font-size="11" fill="#883300">声音波形 · 高频冲刺</text>
  <polyline
    points="30,648 40,648 46,628 52,665 58,615 64,648 74,648 80,648 86,638 92,648 100,648 106,648 112,628 118,665 124,615 130,648 140,648 146,648 152,638 158,648 166,648 172,648 178,628 184,665 190,615 196,648 206,648 212,648 218,638 224,648 232,648 238,648 244,628 250,665 256,615 262,648 272,648 278,648 284,638 290,648 298,648 304,648 310,628 316,665 322,615 328,648 338,648 350,648 356,638 362,648"
    fill="none" stroke="url(#fb_ecg)"
    stroke-width="2.0" stroke-linecap="round" stroke-linejoin="round" opacity="0.88"/>
  <circle cx="58"  cy="615" r="4.7" fill="#FF3300" opacity="0.90"/>
  <circle cx="124" cy="615" r="4.7" fill="#FF6600" opacity="0.90"/>
  <circle cx="190" cy="615" r="4.7" fill="#FF8800" opacity="0.90"/>
  <circle cx="256" cy="615" r="4.7" fill="#FFCC00" opacity="0.90"/>
  <circle cx="322" cy="615" r="4.7" fill="#FF6600" opacity="0.90"/>

  <!-- ── 实时数据卡片 ── -->
  <rect x="30"  y="686" width="100" height="72" rx="14" fill="#1A0800" stroke="#441A00" stroke-width="0.8"/>
  <text x="80"  y="712" text-anchor="middle" font-family="'SF Pro Display','Helvetica Neue',Helvetica,Arial,sans-serif" font-size="11" fill="#884422">频率</text>
  <text x="80"  y="739" text-anchor="middle" font-family="'SF Pro Display','Helvetica Neue',Helvetica,Arial,sans-serif" font-size="22" font-weight="700" fill="#FF8844">94</text>
  <text x="80"  y="754" text-anchor="middle" font-family="'SF Pro Display','Helvetica Neue',Helvetica,Arial,sans-serif" font-size="10" fill="#441A00">/min</text>

  <rect x="145" y="686" width="100" height="72" rx="14" fill="#1A0800" stroke="#441A00" stroke-width="0.8"/>
  <text x="195" y="712" text-anchor="middle" font-family="'SF Pro Display','Helvetica Neue',Helvetica,Arial,sans-serif" font-size="11" fill="#884422">燃脂量</text>
  <text x="195" y="739" text-anchor="middle" font-family="'SF Pro Display','Helvetica Neue',Helvetica,Arial,sans-serif" font-size="22" font-weight="700" fill="#FFAA44">20.1g</text>
  <text x="195" y="754" text-anchor="middle" font-family="'SF Pro Display','Helvetica Neue',Helvetica,Arial,sans-serif" font-size="10" fill="#441A00">Fat Burned</text>

  <rect x="260" y="686" width="100" height="72" rx="14" fill="#1A0800" stroke="#441A00" stroke-width="0.8"/>
  <text x="310" y="712" text-anchor="middle" font-family="'SF Pro Display','Helvetica Neue',Helvetica,Arial,sans-serif" font-size="11" fill="#884422">EPOC后燃</text>
  <text x="310" y="739" text-anchor="middle" font-family="'SF Pro Display','Helvetica Neue',Helvetica,Arial,sans-serif" font-size="22" font-weight="700" fill="#FFCC44">+38</text>
  <text x="310" y="754" text-anchor="middle" font-family="'SF Pro Display','Helvetica Neue',Helvetica,Arial,sans-serif" font-size="10" fill="#441A00">kcal 预计</text>

  <!-- ── 提示文字 ── -->
  <text x="195" y="792" text-anchor="middle"
        font-family="'SF Pro Display','Helvetica Neue',Helvetica,Arial,sans-serif"
        font-size="13" fill="#663300">无氧区间 · 极效燃脂 · EPOC持续24小时</text>

  <!-- ── 底部按钮 ── -->
  <rect x="30"  y="804" width="155" height="52" rx="26" fill="url(#fb_btn)" opacity="0.88"/>
  <text x="107" y="836" text-anchor="middle"
        font-family="'SF Pro Display','Helvetica Neue',Helvetica,Arial,sans-serif"
        font-size="15" font-weight="600" fill="#FFE0AA">查看报告</text>
  <rect x="205" y="804" width="155" height="52" rx="26" fill="#1A0800" stroke="#441A00" stroke-width="1"/>
  <text x="282" y="836" text-anchor="middle"
        font-family="'SF Pro Display','Helvetica Neue',Helvetica,Arial,sans-serif"
        font-size="15" font-weight="600" fill="#884422">暂停休息</text>

</svg>
